<?xml version="1.0" standalone="no"?><!DOCTYPE svg PUBLIC "-//W3C//DTD SVG 1.1//EN" "http://www.w3.org/Graphics/SVG/1.1/DTD/svg11.dtd"><svg t="1602314084328" class="icon" viewBox="0 0 1024 1024" version="1.1" xmlns="http://www.w3.org/2000/svg" p-id="1958" xmlns:xlink="http://www.w3.org/1999/xlink" width="200" height="200"><defs><style type="text/css"></style></defs><path d="M988.744462 858.270072L537.069 75.712713c-5.201637-8.958374-14.737971-14.448991-24.996755-14.448991s-19.795118 5.490617-24.996755 14.448991L35.111048 858.270072c-5.201637 8.958374-5.201637 19.939608 0 28.897982 5.201637 8.958374 14.737971 14.448991 24.996755 14.448991H963.747707c10.258784 0 19.795118-5.490617 24.996755-14.448991 5.201637-8.958374 5.201637-19.939608 0-28.897982z m-878.49866-14.448991l401.681953-695.863412 401.681953 695.863412h-803.363906z" p-id="1959"></path><path d="M483.029773 405.294201V637.200508c0 15.89389 13.004092 28.897982 28.897982 28.897982s28.897982-13.004092 28.897982-28.897982V405.294201c0-15.89389-13.004092-28.897982-28.897982-28.897983s-28.897982 13.004092-28.897982 28.897983zM511.927755 717.392409c-15.89389 0-28.897982 13.004092-28.897982 28.897982v17.338789c0 15.89389 13.004092 28.897982 28.897982 28.897982s28.897982-13.004092 28.897982-28.897982v-17.338789c0-15.89389-12.859602-28.897982-28.897982-28.897982z" p-id="1960"></path></svg>