<?xml version="1.0" standalone="no"?><!DOCTYPE svg PUBLIC "-//W3C//DTD SVG 1.1//EN" "http://www.w3.org/Graphics/SVG/1.1/DTD/svg11.dtd"><svg t="1602314168225" class="icon" viewBox="0 0 1024 1024" version="1.1" xmlns="http://www.w3.org/2000/svg" p-id="2842" xmlns:xlink="http://www.w3.org/1999/xlink" width="200" height="200"><defs><style type="text/css"></style></defs><path d="M822.646154 247.827692l-1.831385-0.019692a477.518769 477.518769 0 0 1-54.823384-5.257846c-37.868308-5.592615-76.012308-14.828308-112.738462-28.790154a824.182154 824.182154 0 0 1-98.126769-45.213538 551.148308 551.148308 0 0 1-42.948923-25.560616l-2.284308-1.575384-4.667077 3.052307a596.086154 596.086154 0 0 1-44.701538 26.210462 804.096 804.096 0 0 1-93.873231 42.771692c-36.568615 13.922462-74.712615 23.158154-112.580923 28.750769a477.341538 477.341538 0 0 1-55.315692 5.257846l-1.831385 0.039385v294.498462c0 32.334769 10.594462 67.603692 32.433231 105.038769 19.987692 34.225231 49.152 69.198769 84.164923 100.608 33.201231 29.735385 69.986462 54.941538 106.023384 72.763077 35.387077 17.526154 67.288615 26.368 90.801231 26.368 25.560615 0 60.238769-10.24 98.934154-30.523077 39.522462-20.696615 78.808615-49.427692 112.994462-82.747077 31.310769-30.523077 55.965538-62.365538 73.452307-94.483692 18.648615-34.402462 27.667692-66.756923 27.588923-96.571077v-294.596923l-0.669538-0.019693zM510.601846 140.8l3.465846-3.465846a15.340308 15.340308 0 0 1-3.820307 0.492308 19.278769 19.278769 0 0 1-10.633847-3.702154l1.122462 0.827077 9.078154 6.380307 0.787692-0.531692z m331.382154 48.285538c22.134154 0.098462 40.231385 17.545846 40.408615 38.971077v314.368c0.098462 40.132923-11.618462 82.077538-34.73723 124.731077-20.420923 37.533538-48.679385 74.062769-84.145231 108.62277-38.242462 37.257846-82.176 69.395692-126.818462 92.790153C590.178462 892.967385 546.540308 905.846154 510.365538 905.846154c-33.575385 0-74.062769-11.244308-116.992-32.492308-40.96-20.243692-82.176-48.502154-119.256615-81.723077-39.404308-35.367385-72.526769-75.047385-95.744-114.825846C151.433846 630.724923 137.846154 585.373538 137.846154 541.991385v-314.289231c0-20.775385 17.191385-37.868308 39.246769-38.951385h0.708923l19.889231-0.374154c3.426462-0.078769 74.614154-2.244923 147.968-30.12923 70.734769-26.919385 118.784-57.698462 127.153231-63.192616l0.098461-0.078769 13.390769-8.999385A42.594462 42.594462 0 0 1 510.267077 78.769231c9.275077 0 17.644308 2.697846 24.398769 7.837538l11.421539 7.995077c3.347692 2.264615 53.287385 35.190154 128.334769 64 73.353846 27.904 144.541538 30.050462 147.968 30.129231h0.275692l19.337846 0.374154z" fill="#444444" p-id="2843"></path><path d="M472.615385 325.159385a29.538462 29.538462 0 0 1 59.076923 0v236.307692a29.538462 29.538462 0 0 1-59.076923 0v-236.307692zM504.812308 705.910154a39.384615 39.384615 0 1 0 0-78.769231 39.384615 39.384615 0 0 0 0 78.769231z" fill="#444444" p-id="2844"></path></svg>