<?xml version="1.0" standalone="no"?><!DOCTYPE svg PUBLIC "-//W3C//DTD SVG 1.1//EN" "http://www.w3.org/Graphics/SVG/1.1/DTD/svg11.dtd"><svg t="1602314066436" class="icon" viewBox="0 0 1024 1024" version="1.1" xmlns="http://www.w3.org/2000/svg" p-id="1831" xmlns:xlink="http://www.w3.org/1999/xlink" width="200" height="200"><defs><style type="text/css"></style></defs><path d="M512 1024C229.262222 1024 0 794.737778 0 512S229.262222 0 512 0s512 229.262222 512 512-229.262222 512-512 512z m0-946.062222C272.241778 77.937778 77.937778 272.213333 77.937778 512c0 239.758222 194.304 434.062222 434.062222 434.062222 239.758222 0 434.062222-194.304 434.062222-434.062222C946.062222 272.241778 751.786667 77.937778 512 77.937778z m0 762.481778a68.010667 68.010667 0 1 1-0.028444-136.021334A68.010667 68.010667 0 0 1 512 840.419556z m0-204.117334c-18.773333 0-34.019556-30.435556-34.019556-68.010666L443.960889 262.115556a68.010667 68.010667 0 1 1 136.078222 0L546.019556 568.32c0 37.575111-15.246222 68.010667-34.019556 68.010667z" p-id="1832"></path></svg>