<?xml version="1.0" standalone="no"?><!DOCTYPE svg PUBLIC "-//W3C//DTD SVG 1.1//EN" "http://www.w3.org/Graphics/SVG/1.1/DTD/svg11.dtd"><svg t="1602316515859" class="icon" viewBox="0 0 1024 1024" version="1.1" xmlns="http://www.w3.org/2000/svg" p-id="1177" xmlns:xlink="http://www.w3.org/1999/xlink" width="200" height="200"><defs><style type="text/css"></style></defs><path d="M512 460.8a256 256 0 0 1 256 256V1024h-512v-307.2A256 256 0 0 1 512 460.8z m-343.665778 153.884444a357.546667 357.546667 0 0 0-14.336 84.48l-0.398222 17.635556V1024H0v-230.4a179.2 179.2 0 0 1 159.744-178.176l8.647111-0.739556z m687.331556 0A179.256889 179.256889 0 0 1 1024 793.6V1024h-153.6v-307.2a357.432889 357.432889 0 0 0-14.734222-102.115556zM179.2 307.2A128 128 0 1 1 51.2 435.2 128 128 0 0 1 179.2 307.2z m665.6 0a128 128 0 1 1-128 128 128 128 0 0 1 128-128zM512 0a204.8 204.8 0 1 1-204.8 204.8A204.8 204.8 0 0 1 512 0z" p-id="1178"></path></svg>
