<?xml version="1.0" standalone="no"?><!DOCTYPE svg PUBLIC "-//W3C//DTD SVG 1.1//EN" "http://www.w3.org/Graphics/SVG/1.1/DTD/svg11.dtd"><svg t="1602316509071" class="icon" viewBox="0 0 1024 1024" version="1.1" xmlns="http://www.w3.org/2000/svg" p-id="1041" xmlns:xlink="http://www.w3.org/1999/xlink" width="200" height="200"><defs><style type="text/css"></style></defs><path d="M0 1024a390.428444 390.428444 0 0 1 780.8 0z m390.428444-438.784a292.522667 292.522667 0 1 1 292.807112-292.693333 292.579556 292.579556 0 0 1-292.807112 292.522666z m359.310223 108.828444A366.023111 366.023111 0 0 1 1024 1024h-145.578667a485.660444 485.660444 0 0 0-128.682666-329.955556z m-98.702223-110.990222A389.973333 389.973333 0 0 0 731.306667 102.4a243.825778 243.825778 0 0 1-80.270223 480.711111z" p-id="1042"></path></svg>
