<?xml version="1.0" standalone="no"?><!DOCTYPE svg PUBLIC "-//W3C//DTD SVG 1.1//EN" "http://www.w3.org/Graphics/SVG/1.1/DTD/svg11.dtd"><svg t="1606902671726" class="icon" viewBox="0 0 1024 1024" version="1.1" xmlns="http://www.w3.org/2000/svg" p-id="1905" xmlns:xlink="http://www.w3.org/1999/xlink" width="200" height="200"><defs><style type="text/css"></style></defs><path d="M940.131963 188.437076h-151.554634v-97.328665A87.815336 87.815336 0 0 0 704.567324 0H319.057998a87.815336 87.815336 0 0 0-84.010005 91.108411v97.840921H84.005614A87.815336 87.815336 0 0 0 0.068789 280.057743v652.833846a87.815336 87.815336 0 0 0 83.936825 91.108411h856.638605A87.815336 87.815336 0 0 0 1024.581045 932.891589V279.545487a88.473951 88.473951 0 0 0-84.449082-91.108411z m-658.615022-97.255485a40.029157 40.029157 0 0 1 37.541057-41.492747h385.509326a39.66326 39.66326 0 0 1 37.906953 41.492747v97.767741h-461.030515zM978.477993 622.025298h-165.38555v16.904453a23.124705 23.124705 0 1 1-46.103051 0V622.025298H257.075006v16.904453a23.124705 23.124705 0 1 1-46.103051 0V622.025298H45.659584v-49.615665h165.38555v-16.904452a23.124705 23.124705 0 1 1 46.103052 0v16.904452h510.499821v-16.904452a23.124705 23.124705 0 1 1 46.103051 0v16.904452h165.38555l-0.658615 49.615665z" p-id="1906"></path></svg>