<?xml version="1.0" standalone="no"?><!DOCTYPE svg PUBLIC "-//W3C//DTD SVG 1.1//EN" "http://www.w3.org/Graphics/SVG/1.1/DTD/svg11.dtd"><svg t="1603439785421" class="icon" viewBox="0 0 1024 1024" version="1.1" xmlns="http://www.w3.org/2000/svg" p-id="6781" xmlns:xlink="http://www.w3.org/1999/xlink" width="200" height="200"><defs><style type="text/css"></style></defs><path d="M874.937551 1024h-127.999493a21.333249 21.333249 0 0 1-21.333249-21.333249v-170.665991h42.666498v149.332742h85.332995v-149.332742h42.666498v170.665991a21.333249 21.333249 0 0 1-21.333249 21.333249zM277.606582 1024H149.607089a21.333249 21.333249 0 0 1-21.333249-21.333249V640.00152h42.666498v341.331982h85.332995v-170.665991h42.666498v191.99924a21.333249 21.333249 0 0 1-21.333249 21.333249zM1002.937044 746.667764c-51.647796 0-149.332742-26.751894-149.332742-127.999493h42.666498c0 61.375757 54.143786 78.613022 85.332996 83.45567V512.002027c0-69.375725-39.082512-127.999493-85.332996-127.999494-57.813104 0-106.666244 29.311884-106.666244 63.999747h-42.666498c0-59.733097 65.59974-106.666244 149.332742-106.666244 70.591721 0 127.999493 76.56503 127.999493 170.665991v213.332489a21.333249 21.333249 0 0 1-21.333249 21.333248z" p-id="6782"></path><path d="M490.939071 1024h-127.999493a21.333249 21.333249 0 0 1-21.333249-21.333249v-152.810062a276.692238 276.692238 0 0 1-71.978382-21.482581 234.900404 234.900404 0 0 1-140.159445-186.239263C128.721838 634.02821 128.27384 626.348241 128.27384 618.668271V382.487873A149.332742 149.332742 0 0 1 149.607089 85.337049h163.178021L413.606044 4.676035A21.333249 21.333249 0 0 1 448.272573 21.337302v63.999747a63.999747 63.999747 0 0 1 63.999747 63.999747v255.998986a21.333249 21.333249 0 0 0 21.333249 21.333249h255.998987a106.794244 106.794244 0 0 1 106.666244 106.666245v298.665484a21.333249 21.333249 0 0 1-21.333249 21.333249H512.27232v149.332742a21.333249 21.333249 0 0 1-21.333249 21.333249z m-106.666244-42.666498h85.332995v-149.332742a21.333249 21.333249 0 0 1 21.333249-21.333249h362.665231V533.335276a63.999747 63.999747 0 0 0-63.999746-63.999747H533.605569a63.999747 63.999747 0 0 1-63.999747-63.999747V149.336796a21.333249 21.333249 0 0 0-21.333249-21.333249h-21.333249a21.333249 21.333249 0 0 1-21.333248-21.333249V65.731793l-71.999715 57.599772A21.333249 21.333249 0 0 1 320.27308 128.003547H149.607089a106.666244 106.666244 0 0 0 0 213.332489 21.333249 21.333249 0 0 1 21.333249 21.333248v255.998987c0 6.399975 0.405332 12.799949 0.981329 19.199924a192.511238 192.511238 0 0 0 115.455543 151.722066 234.495072 234.495072 0 0 0 77.354361 20.095921 21.333249 21.333249 0 0 1 19.541256 21.333249z" p-id="6783"></path><path d="M226.940116 123.331565l-26.666561-33.322535 106.666244-85.332995A21.333249 21.333249 0 0 1 341.606329 21.337302v85.332996h-42.666498V65.731793zM149.607089 384.002533v-42.666497a5.439978 5.439978 0 0 0-2.49599 0.533331C154.129738 337.645383 170.940338 300.802863 170.940338 234.669791s-16.8106-102.975592-23.829239-107.199576A5.439978 5.439978 0 0 0 149.607089 128.003547V85.337049c44.202492 0 63.999747 75.007703 63.999747 149.332742s-19.797255 149.332742-63.999747 149.332742zM533.605569 469.335529v-42.666498c64.981076 0 100.543602-30.250547 105.940914-89.96231C602.277297 320.536118 576.272067 263.68301 576.272067 192.003293c0-85.482328-33.791866-149.332742-63.999747-149.332742h-85.332996V0.004053h85.332996c60.821093 0 106.666244 82.53834 106.666244 191.99924 0 65.109076 25.2799 106.666244 42.666498 106.666245a21.333249 21.333249 0 0 1 21.333249 21.333249c0 94.890291-54.421118 149.332742-149.332742 149.332742zM85.607342 640.00152a21.333249 21.333249 0 0 1-21.333249-21.333249c0-85.119663 36.693188-149.332742 85.332996-149.332742v42.666498c-15.359939 0-36.863854 32.426538-41.685168 84.84233a561.427111 561.427111 0 0 0 39.189178-3.199987C299.686495 576.129773 469.605822 494.487429 469.605822 405.335782h42.666498c0 118.506198-183.145942 210.345834-360.233241 230.67642A563.475103 563.475103 0 0 1 85.607342 640.00152zM362.939578 213.336542h-42.666498a21.333249 21.333249 0 0 0-42.666498 0h-42.666498a63.999747 63.999747 0 0 1 127.999494 0zM746.938058 917.333756h127.999493v42.666497h-127.999493zM362.939578 917.333756h127.999493v42.666497h-127.999493zM149.607089 917.333756h127.999493v42.666497H149.607089z" p-id="6784"></path></svg>
