<?xml version="1.0" standalone="no"?><!DOCTYPE svg PUBLIC "-//W3C//DTD SVG 1.1//EN" "http://www.w3.org/Graphics/SVG/1.1/DTD/svg11.dtd"><svg t="1601371377975" class="icon" viewBox="0 0 1024 1024" version="1.1" xmlns="http://www.w3.org/2000/svg" p-id="8703" xmlns:xlink="http://www.w3.org/1999/xlink" width="200" height="200"><defs><style type="text/css"></style></defs><path d="M238.933333 897.706667L180.906667 955.733333c-10.24 10.24-10.24 23.893333 0 34.133334 10.24 10.24 23.893333 10.24 34.133333 0L273.066667 928.426667c10.24-10.24 10.24-23.893333 0-34.133334-10.24-6.826667-23.893333-6.826667-34.133334 3.413334z m-170.666666-54.613334L126.293333 785.066667c10.24-10.24 10.24-23.893333 0-34.133334-10.24-10.24-23.893333-10.24-34.133333 0L34.133333 808.96c-10.24 10.24-10.24 23.893333 0 34.133333 10.24 10.24 23.893333 10.24 34.133334 0z m133.12-20.48c-10.24-10.24-23.893333-10.24-34.133334 0L34.133333 955.733333c-10.24 10.24-10.24 23.893333 0 34.133334 10.24 10.24 23.893333 10.24 34.133334 0l133.12-133.12c6.826667-10.24 6.826667-23.893333 0-34.133334z m628.053333-133.12c85.333333-85.333333 143.36-187.733333 170.666667-296.96 30.72-112.64 30.72-228.693333 0-341.333333-3.413333-13.653333-13.653333-23.893333-27.306667-27.306667-112.64-30.72-232.106667-30.72-344.746667 0-109.226667 30.72-211.626667 85.333333-296.96 170.666667l-3.413333 6.826667c-40.96-10.24-81.92-10.24-122.88-3.413334-47.786667 10.24-92.16 34.133333-129.706667 71.68C34.133333 310.613333 10.24 358.4 3.413333 413.013333c-6.826667 51.2 0 109.226667 23.893334 157.013334 0 3.413333 3.413333 6.826667 6.826666 10.24 13.653333 17.066667 40.96 17.066667 54.613334 3.413333 17.066667-13.653333 34.133333-27.306667 54.613333-34.133333l6.826667-3.413334c-3.413333 10.24-3.413333 20.48-3.413334 30.72-3.413333 30.72-6.826667 61.44-6.826666 92.16 0 10.24 3.413333 23.893333 10.24 30.72l177.493333 174.08c6.826667 6.826667 17.066667 10.24 27.306667 10.24 30.72 0 61.44 0 95.573333-6.826666 10.24 0 20.48-3.413333 30.72-3.413334l-3.413333 6.826667c-6.826667 20.48-20.48 37.546667-34.133334 51.2-3.413333 3.413333-3.413333 6.826667-6.826666 10.24-10.24 20.48 0 44.373333 17.066666 51.2 51.2 23.893333 105.813333 34.133333 157.013334 23.893333 51.2-6.826667 98.986667-30.72 139.946666-71.68l3.413334-3.413333c37.546667-37.546667 61.44-81.92 71.68-129.706667 10.24-40.96 6.826667-81.92-3.413334-122.88h6.826667zM699.733333 477.866667C614.4 477.866667 546.133333 409.6 546.133333 324.266667S614.4 170.666667 699.733333 170.666667 853.333333 238.933333 853.333333 324.266667 785.066667 477.866667 699.733333 477.866667z m0-238.933334C651.946667 238.933333 614.4 276.48 614.4 324.266667s37.546667 85.333333 85.333333 85.333333S785.066667 372.053333 785.066667 324.266667 747.52 238.933333 699.733333 238.933333z" p-id="8704"></path></svg>