<?xml version="1.0" standalone="no"?><!DOCTYPE svg PUBLIC "-//W3C//DTD SVG 1.1//EN" "http://www.w3.org/Graphics/SVG/1.1/DTD/svg11.dtd"><svg t="1607413450274" class="icon" viewBox="0 0 1024 1024" version="1.1" xmlns="http://www.w3.org/2000/svg" p-id="1286" xmlns:xlink="http://www.w3.org/1999/xlink" width="200" height="200"><defs><style type="text/css"></style></defs><path d="M512.322341 62.974263c-114.058732 0-206.839859 92.781126-206.839859 206.823486 0 114.050546 92.781126 206.831672 206.839859 206.831672 114.042359 0 206.823486-92.781126 206.823486-206.831672C719.145827 155.75539 626.363677 62.974263 512.322341 62.974263z" p-id="1287"></path><path d="M854.184383 725.902718c-5.376451-30.702256-8.892531-44.425815-34.698267-71.278393-32.450063-32.490995-115.951849-126.184911-151.894456-165.41847-5.426593-8.245801-18.222013-5.161556-19.753903-0.068562-19.658735 65.310472-49.198515 110.970394-91.283006 169.340803-4.203742-23.956621-10.111289-62.416562-14.508435-90.476641 9.658987-8.459672 15.883759-20.739347 15.883759-34.58775 0-9.770528-3.075035-18.799158-8.255011-26.260084-4.326539-6.232958-10.218736-11.208273-17.019629-14.686491-6.29538-3.219321-13.322423-5.208629-20.881586-5.208629-7.522324 0-14.512529 1.968841-20.787442 5.15951-6.78452 3.448542-12.656251 8.398274-16.986883 14.588253-5.249561 7.490601-8.381901 16.568351-8.381901 26.40744 0 13.365402 5.768377 25.302269 14.85022 33.731242-4.643764 29.622668-10.247388 59.409065-15.920598 91.716888-42.430368-58.942437-70.586638-106.344027-89.471754-169.751149-1.449002-4.867868-15.924691-7.887644-23.101137 0.016373-41.850154 39.048341-135.685285 143.366222-169.201633 182.197622-14.532995 16.836457-14.532995 42.049698-14.532995 69.929676 0 61.8343 0.358157 100.125395 0.358157 100.125395-0.358157 21.367657 16.447601 30.384008 28.580942 30.384008 118.710682 0 509.113253 0 629.195166 0 0 0 15.019065-1.337461 21.355377-10.595312 7.270591-10.623965 7.868201-20.632923 7.876388-22.169929C855.605755 838.998519 856.44896 738.833215 854.184383 725.902718z" p-id="1288"></path><path d="M826.369897 910.3598 197.170638 910.3598c-13.96506 0-25.295106 11.32186-25.295106 25.295106s11.330046 25.295106 25.295106 25.295106l629.199259 0c13.96506 0 25.295106-11.32186 25.295106-25.295106S840.334957 910.3598 826.369897 910.3598z" p-id="1289"></path></svg>