<?xml version="1.0" standalone="no"?><!DOCTYPE svg PUBLIC "-//W3C//DTD SVG 1.1//EN" "http://www.w3.org/Graphics/SVG/1.1/DTD/svg11.dtd"><svg t="1607326390845" class="icon" viewBox="0 0 1024 1024" version="1.1" xmlns="http://www.w3.org/2000/svg" p-id="1921" xmlns:xlink="http://www.w3.org/1999/xlink" width="200" height="200"><defs><style type="text/css"></style></defs><path d="M512 93.098667a418.901333 418.901333 0 1 0 0 837.802666c231.367111 0 418.901333-187.534222 418.901333-418.901333S743.367111 93.098667 512 93.098667zM0 512C0 229.262222 229.262222 0 512 0s512 229.262222 512 512-229.262222 512-512 512S0 794.737778 0 512z" p-id="1922"></path><path d="M564.622222 373.020444c11.235556 10.126222 16.867556 25.258667 15.018667 40.419556l-37.319111 303.729778 26.567111-6.769778a44.942222 44.942222 0 0 1 44.003555 12.572444c11.377778 11.946667 15.644444 29.155556 11.093334 45.141334a45.880889 45.880889 0 0 1-32.995556 32.199111l-91.022222 23.182222a44.913778 44.913778 0 0 1-41.187556-10.24 46.819556 46.819556 0 0 1-14.990222-40.476444l37.262222-303.701334-26.567111 6.769778a45.454222 45.454222 0 0 1-54.897777-33.792c-6.058667-24.689778 8.561778-49.777778 32.768-56.149333l91.022222-23.153778a44.913778 44.913778 0 0 1 41.244444 10.268444zM443.448889 245.475556c0-25.6 20.366222-46.364444 45.511111-46.364445h45.482667c25.144889 0 45.511111 20.764444 45.511111 46.364445 0 25.6-20.366222 46.364444-45.511111 46.364444h-45.511111c-12.060444 0-23.637333-4.892444-32.170667-13.596444-8.533333-8.704-13.340444-20.48-13.340445-32.768z" p-id="1923"></path></svg>