<?xml version="1.0" standalone="no"?><!DOCTYPE svg PUBLIC "-//W3C//DTD SVG 1.1//EN" "http://www.w3.org/Graphics/SVG/1.1/DTD/svg11.dtd"><svg t="1607326402037" class="icon" viewBox="0 0 1024 1024" version="1.1" xmlns="http://www.w3.org/2000/svg" p-id="2052" xmlns:xlink="http://www.w3.org/1999/xlink" width="200" height="200"><defs><style type="text/css"></style></defs><path d="M0 512C0 229.262222 229.262222 0 512 0s512 229.262222 512 512-229.262222 512-512 512S0 794.737778 0 512z m564.622222-138.979556a44.913778 44.913778 0 0 0-41.244444-10.268444l-91.022222 23.153778c-24.177778 6.371556-38.826667 31.459556-32.768 56.149333a45.454222 45.454222 0 0 0 54.897777 33.792l26.567111-6.769778-37.262222 303.701334a46.819556 46.819556 0 0 0 14.990222 40.448c11.235556 10.154667 26.652444 13.994667 41.216 10.268444l91.022223-23.182222c15.872-3.925333 28.444444-16.213333 32.995555-32.199111a46.961778 46.961778 0 0 0-11.121778-45.141334A44.942222 44.942222 0 0 0 568.888889 710.4l-26.567111 6.769778 37.319111-303.729778a46.819556 46.819556 0 0 0-15.018667-40.391111zM443.448889 245.475556c0 12.288 4.778667 24.064 13.312 32.768 8.533333 8.704 20.110222 13.568 32.170667 13.568h45.511111c25.144889 0 45.511111-20.764444 45.511111-46.364445 0-25.6-20.366222-46.336-45.511111-46.336h-45.511111c-25.116444 0-45.511111 20.764444-45.511112 46.364445z" p-id="2053"></path></svg>