<?xml version="1.0" standalone="no"?><!DOCTYPE svg PUBLIC "-//W3C//DTD SVG 1.1//EN" "http://www.w3.org/Graphics/SVG/1.1/DTD/svg11.dtd"><svg t="1604630692818" class="icon" viewBox="0 0 1024 1024" version="1.1" xmlns="http://www.w3.org/2000/svg" p-id="2036" xmlns:xlink="http://www.w3.org/1999/xlink" width="200" height="200"><defs><style type="text/css"></style></defs><path d="M826.726008 961.610044 197.273992 961.610044c-74.492598 0-134.88506-60.392462-134.88506-134.88506L62.388932 197.273992c0-74.492598 60.392462-134.88506 134.88506-134.88506l629.450992 0c74.492598 0 134.884037 60.392462 134.884037 134.88506l0 629.450992C961.610044 901.217582 901.218606 961.610044 826.726008 961.610044L826.726008 961.610044zM512 289.445228c-124.151601 0-224.805022 99.640348-224.805022 222.554772 0 122.907261 100.653421 222.554772 224.805022 222.554772S736.805022 634.906238 736.805022 512C736.805022 389.085576 636.151601 289.445228 512 289.445228L512 289.445228zM483.07932 565.784974l-61.832254 0L421.247066 458.231399l61.891605 0 92.583628-75.27952-0.045025 258.106476L483.07932 565.784974 483.07932 565.784974z" p-id="2037"></path></svg>