<?xml version="1.0" standalone="no"?><!DOCTYPE svg PUBLIC "-//W3C//DTD SVG 1.1//EN" "http://www.w3.org/Graphics/SVG/1.1/DTD/svg11.dtd"><svg t="1601343825979" class="icon" viewBox="0 0 1024 1024" version="1.1" xmlns="http://www.w3.org/2000/svg" p-id="2075" xmlns:xlink="http://www.w3.org/1999/xlink" width="200" height="200"><defs><style type="text/css"></style></defs><path d="M867.046319 267.904633l-96.972589 0c4.882194-13.980409 8.209986-28.848025 8.209986-44.38079 0-73.449849-59.69252-133.142369-133.142369-133.142369-46.378284 0-87.208201 23.743774-110.951975 59.69252l-22.190395 30.179346L489.809605 150.073994c-23.743774-35.948747-64.573691-59.69252-110.951975-59.69252-73.449849 0-133.142369 59.69252-133.142369 133.142369 0 15.533788 3.106758 30.400381 8.209986 44.38079l-96.972589 0c-49.040926 0-88.317465 39.720653-88.317465 88.76158l-0.444115 488.189711c0 49.040926 39.720653 88.76158 88.76158 88.76158l710.09366 0c49.040926 0 88.76158-39.720653 88.76158-88.76158L955.807898 356.667236C955.808922 307.626309 916.087245 267.904633 867.046319 267.904633zM645.142369 179.143053c24.409946 0 44.38079 19.971867 44.38079 44.38079s-19.971867 44.38079-44.38079 44.38079c-24.409946 0-44.38079-19.971867-44.38079-44.38079S620.733447 179.143053 645.142369 179.143053zM378.857631 179.143053c24.409946 0 44.38079 19.971867 44.38079 44.38079s-19.971867 44.38079-44.38079 44.38079-44.38079-19.971867-44.38079-44.38079S354.447684 179.143053 378.857631 179.143053zM867.046319 844.855924 156.952658 844.855924l0-88.76158 710.09366 0L867.046319 844.855924zM867.046319 622.951975 156.952658 622.951975l0-266.284739 225.454822 0-92.312452 125.81959 72.118528 51.703569 105.404632-143.571906 44.38079-60.35767 44.38079 60.35767 105.404632 143.571906 72.118528-51.703569-92.312452-125.81959 225.454822 0L867.045295 622.951975z" p-id="2076"></path></svg>