<?xml version="1.0" standalone="no"?><!DOCTYPE svg PUBLIC "-//W3C//DTD SVG 1.1//EN" "http://www.w3.org/Graphics/SVG/1.1/DTD/svg11.dtd"><svg t="1601371192061" class="icon" viewBox="0 0 1024 1024" version="1.1" xmlns="http://www.w3.org/2000/svg" p-id="2145" xmlns:xlink="http://www.w3.org/1999/xlink" width="200" height="200"><defs><style type="text/css"></style></defs><path d="M1008.75904 348.672l-141.312-240.128c-19.968-34.304-56.832-55.296-96.768-55.296h-517.12c-39.936 0-76.288 20.992-96.768 55.296L15.47904 348.672c-24.576 41.984-19.456 94.72 12.288 131.072l399.872 453.12c21.504 24.064 51.712 37.888 83.968 37.888 32.256 0 62.976-13.824 83.968-37.888l399.872-453.12c32.768-36.352 37.888-89.6 13.312-131.072z" p-id="2146"></path><path d="M766.58304 434.176l-222.72 222.72c-18.432 17.92-47.616 17.92-66.048 0L255.60704 434.176c-16.384-18.432-15.872-46.592 1.536-64.512 17.408-17.408 46.08-18.432 64.512-1.536l188.928 189.44 189.44-189.44c11.776-12.288 29.184-17.408 45.568-13.312 16.384 4.096 29.184 16.896 33.792 33.792 4.096 16.384-1.024 33.792-13.312 45.568h0.512z" p-id="2147" data-spm-anchor-id="a313x.7781069.0.i4" class="selected" fill="#e6e6e6"></path></svg>