<?xml version="1.0" standalone="no"?><!DOCTYPE svg PUBLIC "-//W3C//DTD SVG 1.1//EN" "http://www.w3.org/Graphics/SVG/1.1/DTD/svg11.dtd"><svg t="1601349485277" class="icon" viewBox="0 0 1024 1024" version="1.1" xmlns="http://www.w3.org/2000/svg" p-id="1188" xmlns:xlink="http://www.w3.org/1999/xlink" width="200" height="200"><defs><style type="text/css"></style></defs><path d="M1024 96.96v23.424c-28.736 0-78.976 6.976-92.992 20.928-13.888 14.016-30.4 45.248-49.28 93.696l-273.6 691.52-175.424 0.512-302.08-677.248c-23.872-53.44-44.352-88.384-61.632-104.768S28.736 120.384 0 120.384V96.96h472.448v23.424c-36.16 0-92.864 2.688-105.6 8-12.8 5.376-19.136 17.856-19.136 37.632 0 11.52 6.72 32.448 20.224 62.848 13.632 30.4 23.68 53.44 30.208 68.992l186.112 414.976 180.992-450.88c4.992-15.552 10.368-31.616 16.256-48 4.992-18.112 7.488-30.4 7.488-36.992 0-22.912-8-38.144-24-45.568-16.128-7.36-85.248-11.072-113.152-11.072V96.96H1024z m0 0" fill="" p-id="1189"></path></svg>