<?xml version="1.0" standalone="no"?><!DOCTYPE svg PUBLIC "-//W3C//DTD SVG 1.1//EN" "http://www.w3.org/Graphics/SVG/1.1/DTD/svg11.dtd"><svg t="1605153779120" class="icon" viewBox="0 0 1024 1024" version="1.1" xmlns="http://www.w3.org/2000/svg" p-id="2729" xmlns:xlink="http://www.w3.org/1999/xlink" width="200" height="200"><defs><style type="text/css"></style></defs><path d="M512 1024c-282.112 0-512-229.888-512-512s229.888-512 512-512 512 229.888 512 512-229.888 512-512 512z m0-957.44c-245.76 0-445.44 199.68-445.44 445.44s199.68 445.44 445.44 445.44 445.44-199.68 445.44-445.44-199.68-445.44-445.44-445.44z" p-id="2730"></path><path d="M404.992 754.176V271.36c0-18.432 14.848-33.28 33.28-33.28s33.28 14.848 33.28 33.28v482.816c0 18.432-14.848 33.28-33.28 33.28s-33.28-14.848-33.28-33.28z" p-id="2731"></path><path d="M461.824 294.912l-172.544 172.544c-12.8 12.8-34.304 12.8-47.104 0-12.8-12.8-12.8-34.304 0-47.104l172.544-172.544c12.8-12.8 34.304-12.8 47.104 0 13.312 12.8 13.312 34.304 0 47.104zM619.008 269.824V752.64c0 18.432-14.848 33.28-33.28 33.28s-33.28-14.848-33.28-33.28v-482.816c0-18.432 14.848-33.28 33.28-33.28s33.28 14.848 33.28 33.28z" p-id="2732"></path><path d="M562.176 729.088l172.544-172.544c12.8-12.8 34.304-12.8 47.104 0 12.8 12.8 12.8 34.304 0 47.104l-172.544 172.544c-12.8 12.8-34.304 12.8-47.104 0-13.312-12.8-13.312-34.304 0-47.104z" p-id="2733"></path></svg>