<?xml version="1.0" standalone="no"?><!DOCTYPE svg PUBLIC "-//W3C//DTD SVG 1.1//EN" "http://www.w3.org/Graphics/SVG/1.1/DTD/svg11.dtd"><svg t="1606958018726" class="icon" viewBox="0 0 1026 1024" version="1.1" xmlns="http://www.w3.org/2000/svg" p-id="2099" xmlns:xlink="http://www.w3.org/1999/xlink" width="200.390625" height="200"><defs><style type="text/css"></style></defs><path d="M1024 296.96c10.24-30.72-10.24-66.56-46.08-76.8L629.76 30.72C593.92 10.24 552.96 0 512 0S430.08 10.24 394.24 25.6L46.08 220.16c-20.48 5.12-35.84 20.48-40.96 35.84-5.12 15.36-5.12 30.72-5.12 40.96V752.64c0 20.48 10.24 35.84 25.6 46.08l358.4 199.68c40.96 15.36 81.92 25.6 128 25.6 46.08 0 87.04-10.24 128-30.72l358.4-194.56c15.36-10.24 25.6-25.6 25.6-46.08V307.2v-10.24zM512 460.8c-25.6 0-46.08-5.12-71.68-15.36l-76.8-46.08 358.4-204.8 158.72 87.04-296.96 163.84c-25.6 10.24-46.08 15.36-71.68 15.36zM440.32 117.76c25.6-10.24 46.08-15.36 71.68-15.36 25.6 0 46.08 5.12 71.68 15.36l30.72 20.48-358.4 204.8-112.64-61.44 296.96-163.84zM102.4 721.92V373.76l291.84 163.84c20.48 10.24 40.96 15.36 66.56 20.48v353.28c-10.24-5.12-20.48-5.12-30.72-10.24L102.4 721.92z m491.52 179.2c-10.24 5.12-20.48 10.24-30.72 10.24v-353.28c20.48-5.12 46.08-10.24 66.56-20.48L921.6 373.76v348.16l-327.68 179.2z" p-id="2100"></path></svg>