<?xml version="1.0" standalone="no"?><!DOCTYPE svg PUBLIC "-//W3C//DTD SVG 1.1//EN" "http://www.w3.org/Graphics/SVG/1.1/DTD/svg11.dtd"><svg t="1604452825131" class="icon" viewBox="0 0 1024 1024" version="1.1" xmlns="http://www.w3.org/2000/svg" p-id="2130" xmlns:xlink="http://www.w3.org/1999/xlink" width="200" height="200"><defs><style type="text/css"></style></defs><path d="M1012.427321 161.179298a32.331648 32.331648 0 0 0-26.299624-13.270452H849.803956a32.331648 32.331648 0 0 0 0 64.904577h90.480359c-57.666149 143.562169-157.797746 249.484509-276.749258 298.464544 84.689616-96.512383 140.184236-272.888762 140.184236-478.701419A32.331648 32.331648 0 0 0 770.905083 0.003619H253.11615a32.331648 32.331648 0 0 0-32.572929 32.331648c0 205.812656 55.49462 382.430317 140.184235 478.701419-119.192793-48.256191-219.083109-155.143655-276.749257-298.705825h86.137302a32.331648 32.331648 0 0 0 0-64.904577H37.652255A32.331648 32.331648 0 0 0 7.009574 190.133013C77.704894 405.838189 232.124706 556.156225 415.498234 595.726302a217.152861 217.152861 0 0 1-82.759369 163.347207h-31.125243A62.009206 62.009206 0 0 0 239.845697 820.358872v140.666798a62.009206 62.009206 0 0 0 62.009206 62.009206h420.311427a62.009206 62.009206 0 0 0 62.009206-62.009206V820.358872a62.009206 62.009206 0 0 0-62.009206-62.009205h-30.642682A217.152861 217.152861 0 0 1 608.522999 595.726302c183.132246-39.570077 337.79334-189.888113 408.247379-405.593289a32.331648 32.331648 0 0 0-4.584338-29.194996zM719.512239 959.095423H304.508994v-135.117336h415.003245v135.117336m18.578634-894.187226C729.163478 317.288077 629.755723 524.7897 512.010616 524.7897s-217.152861-207.501623-226.080256-460.122784h452.160513m-139.942955 690.546098h-172.515884a284.228967 284.228967 0 0 0 53.805653-150.318036c10.857643 0 21.474005 1.206405 32.572929 1.206405s21.715286 0 32.57293-1.206405a284.470248 284.470248 0 0 0 53.805653 150.318036z" p-id="2131"></path></svg>