<?xml version="1.0" standalone="no"?><!DOCTYPE svg PUBLIC "-//W3C//DTD SVG 1.1//EN" "http://www.w3.org/Graphics/SVG/1.1/DTD/svg11.dtd"><svg t="1604300995310" class="icon" viewBox="0 0 1024 1024" version="1.1" xmlns="http://www.w3.org/2000/svg" p-id="5443" xmlns:xlink="http://www.w3.org/1999/xlink" width="200" height="200"><defs><style type="text/css"></style></defs><path d="M996.784 371.053L539.457 76.213a50.259 50.259 0 0 0-54.732 0l-457.47 294.84c-24.167 15.638-31.559 48.476-16.349 73.496 15.067 24.877 46.912 32.556 71.222 16.917l429.89-277.213L941.91 461.609c8.531 5.399 18.055 8.104 27.292 8.104 17.203 0 33.977-8.814 43.786-25.02 15.356-25.164 7.963-58.005-16.204-73.64z" p-id="5444"></path><path d="M871.115 752.587V544.056c0-18.479-9.238-35.539-24.31-45.349L539.453 300.676c-16.773-10.944-38.098-10.944-54.733 0l-307.347 198.17c-15.21 9.667-24.31 26.87-24.31 45.207v361.372c0 29.428 23.171 53.308 51.604 53.308h614.845c28.433 0 51.604-23.884 51.604-53.308V752.587z" p-id="5445"></path></svg>