<?xml version="1.0" standalone="no"?><!DOCTYPE svg PUBLIC "-//W3C//DTD SVG 1.1//EN" "http://www.w3.org/Graphics/SVG/1.1/DTD/svg11.dtd"><svg t="1601273324434" class="icon" viewBox="0 0 1024 1024" version="1.1" xmlns="http://www.w3.org/2000/svg" p-id="1643" xmlns:xlink="http://www.w3.org/1999/xlink" width="200" height="200"><defs><style type="text/css"></style></defs><path d="M512 112a86.24 86.24 0 0 1 63.04 26.88l314.08 327.52c23.36 24.32 25.28 46.88 19.84 59.36a39.52 39.52 0 0 1-37.28 23.04h-64V816c0 53.12-37.92 96-84.48 96H300.48c-46.56 0-84.48-43.04-84.48-96V550.08l-46.88-1.12H151.68a40.64 40.64 0 0 1-36.8-23.36c-5.44-12-3.36-34.56 20-58.88L448.96 139.36A87.36 87.36 0 0 1 512 112m0-48a134.88 134.88 0 0 0-97.6 41.6L100.32 433.28c-39.84 41.28-41.28 84.8-29.28 112a87.2 87.2 0 0 0 78.08 51.68h18.88V816c0 80 59.36 144 132.48 144h423.04c72.96 0 132.48-64 132.48-144V596.96h18.4a87.2 87.2 0 0 0 78.56-52c12-26.72 10.56-70.08-29.12-112L609.6 106.08A134.08 134.08 0 0 0 512 64z" fill="#B8B8B8" p-id="1644"></path><path d="M450.56 355.04a91.84 91.84 0 0 0 60.48 24.16 86.72 86.72 0 0 0 62.24-24.16 146.72 146.72 0 0 1 39.2 24 89.6 89.6 0 0 0 11.52 65.92 88.64 88.64 0 0 0 51.04 41.92c1.28 8 1.92 16.96 2.72 26.4a181.12 181.12 0 0 1-2.08 24.96 93.12 93.12 0 0 0-50.08 40.8 95.04 95.04 0 0 0-10.4 65.92 206.88 206.88 0 0 1-39.68 23.84 91.04 91.04 0 0 0-60.8-24.48 89.6 89.6 0 0 0-62.4 24.48 142.4 142.4 0 0 1-40.96-24.32 94.08 94.08 0 0 0-61.76-108 165.6 165.6 0 0 1 0-50.24 92 92 0 0 0 60.48-106.88 214.72 214.72 0 0 1 40.96-24.32M454.24 321.28a21.44 21.44 0 0 0-7.36 1.44A240 240 0 0 0 384 359.36a17.92 17.92 0 0 0-6.56 20.64 65.12 65.12 0 0 1-5.6 49.76 64 64 0 0 1-38.4 28c-0.96 0-0.96 0-1.92 0.96a25.92 25.92 0 0 0-12.16 14.08v0.96a185.76 185.76 0 0 0-3.84 38.4 162.08 162.08 0 0 0 3.84 37.6 17.92 17.92 0 0 0 14.08 16h0.96a61.44 61.44 0 0 1 44 76.96 18.08 18.08 0 0 0 5.6 20.48 174.08 174.08 0 0 0 64 38.4c0.8 0 1.76 0.96 3.68 0.96h2.88a21.44 21.44 0 0 0 14.88-6.56 57.6 57.6 0 0 1 44.16-19.68 62.72 62.72 0 0 1 44 20.64 20.32 20.32 0 0 0 13.12 6.56 16 16 0 0 0 6.56-0.96A244.64 244.64 0 0 0 640 664.96a17.44 17.44 0 0 0 6.56-20.64 64 64 0 0 1 5.6-49.6 64 64 0 0 1 38.4-28.16c0.96 0 0.96 0 1.92-0.96a25.44 25.44 0 0 0 12.16-14.08v-0.96a184.8 184.8 0 0 0 3.84-38.4 246.88 246.88 0 0 0-4.8-38.4 17.92 17.92 0 0 0-14.08-16h-0.8a57.12 57.12 0 0 1-38.56-28.96 57.76 57.76 0 0 1-5.6-48 18.08 18.08 0 0 0-4.64-20.48 172.32 172.32 0 0 0-64-38.4 13.44 13.44 0 0 0-6.4-1.92 20.32 20.32 0 0 0-14.4 6.88 54.72 54.72 0 0 1-44.16 19.68 62.72 62.72 0 0 1-44-20.64 18.24 18.24 0 0 0-13.28-6.08z" fill="#B8B8B8" p-id="1645"></path><path d="M511.04 477.6a33.76 33.76 0 1 1-33.6 33.6 33.12 33.12 0 0 1 33.6-33.6m0-32A65.76 65.76 0 1 0 576 512a65.28 65.28 0 0 0-65.6-65.6z" fill="#B8B8B8" p-id="1646"></path></svg>