<?xml version="1.0" standalone="no"?><!DOCTYPE svg PUBLIC "-//W3C//DTD SVG 1.1//EN" "http://www.w3.org/Graphics/SVG/1.1/DTD/svg11.dtd"><svg t="1601271430528" class="icon" viewBox="0 0 1024 1024" version="1.1" xmlns="http://www.w3.org/2000/svg" p-id="2085" xmlns:xlink="http://www.w3.org/1999/xlink" width="200" height="200"><defs><style type="text/css"></style></defs><path d="M932.96 333L522.34 98.24a20.828 20.828 0 0 0-20.67 0L91.04 333c-21.39 12.23-31.5 36.42-25.17 60.23 6.33 23.79 27.1 39.76 51.73 39.76h67.31v465.77c0 11.52 9.32 20.84 20.84 20.84h368.71c11.52 0 20.84-9.32 20.84-20.84s-9.32-20.84-20.84-20.84H226.58V412.15c0-11.52-9.32-20.84-20.84-20.84h-88.15c-8.22 0-10.74-6.15-11.46-8.81-0.69-2.65-1.57-9.24 5.58-13.33L512 140.34l400.29 228.84c7.14 4.09 6.27 10.68 5.58 13.33-0.71 2.67-3.24 8.81-11.46 8.81h-88.15c-11.52 0-20.84 9.32-20.84 20.84V575.7c0 11.52 9.32 20.84 20.84 20.84s20.84-9.32 20.84-20.84V433h67.31c24.62 0 45.4-15.97 51.73-39.76 6.32-23.82-3.79-48.01-25.18-60.24z" p-id="2086"></path><path d="M909.38 751.4h-22.95c-2.75-16.25-8.73-31.39-17.69-44.49l15.71-15.72c8.14-8.14 8.14-21.35 0-29.46-8.14-8.14-21.32-8.14-29.46 0l-15.7 15.72c-13.1-8.98-28.24-14.99-44.51-17.76V636.8c0-11.52-9.32-20.84-20.84-20.84s-20.84 9.32-20.84 20.84v23.34c-15.72 3.27-30.08 10.02-42.66 19.12l-17.53-17.54c-8.14-8.14-21.32-8.14-29.46 0-8.14 8.12-8.14 21.32 0 29.46l18.24 18.25c-8.08 12.51-13.6 26.71-16.19 41.96h-27c-11.52 0-20.84 9.32-20.84 20.84s9.32 20.84 20.84 20.84H666c3.07 14.72 9.04 28.37 17.27 40.37l-19.82 19.82c-8.14 8.14-8.14 21.32 0 29.46 4.07 4.07 9.4 6.1 14.73 6.1s10.66-2.03 14.73-6.1l19.83-19.83c12 8.21 25.65 14.17 40.36 17.22v27.56c0 11.52 9.32 20.84 20.84 20.84s20.84-9.32 20.84-20.84v-27.09c15.22-2.59 29.38-8.11 41.87-16.18l18.34 18.32c4.07 4.07 9.4 6.1 14.73 6.1s10.66-2.03 14.73-6.1c8.14-8.14 8.14-21.35 0-29.46l-17.62-17.61c9.08-12.56 15.82-26.89 19.1-42.58h23.45c11.52 0 20.84-9.32 20.84-20.84s-9.32-20.83-20.84-20.83z m-133.4 89.41c-38.99 0-70.69-31.7-70.69-70.69 0-38.97 31.7-70.67 70.69-70.67 38.97 0 70.67 31.7 70.67 70.67 0 38.98-31.71 70.69-70.67 70.69zM674.72 461.09c0-11.52-9.32-20.84-20.84-20.84H360.77c-11.52 0-20.84 9.32-20.84 20.84s9.32 20.84 20.84 20.84h293.12c11.52 0 20.83-9.32 20.83-20.84zM360.77 577.79c-11.52 0-20.84 9.32-20.84 20.84s9.32 20.84 20.84 20.84h186.92c11.52 0 20.84-9.32 20.84-20.84s-9.32-20.84-20.84-20.84H360.77z" p-id="2087"></path></svg>