<?xml version="1.0" standalone="no"?><!DOCTYPE svg PUBLIC "-//W3C//DTD SVG 1.1//EN" "http://www.w3.org/Graphics/SVG/1.1/DTD/svg11.dtd"><svg t="1605777976991" class="icon" viewBox="0 0 1024 1024" version="1.1" xmlns="http://www.w3.org/2000/svg" p-id="2849" xmlns:xlink="http://www.w3.org/1999/xlink" width="200" height="200"><defs><style type="text/css"></style></defs><path d="M256 85.333333m42.666667 0l0 0q42.666667 0 42.666666 42.666667l0 768q0 42.666667-42.666666 42.666667l0 0q-42.666667 0-42.666667-42.666667l0-768q0-42.666667 42.666667-42.666667Z" p-id="2850"></path><path d="M85.333333 256m42.666667 0l768 0q42.666667 0 42.666667 42.666667l0 0q0 42.666667-42.666667 42.666666l-768 0q-42.666667 0-42.666667-42.666666l0 0q0-42.666667 42.666667-42.666667Z" p-id="2851"></path><path d="M426.666667 85.333333m42.666666 0l0 0q42.666667 0 42.666667 42.666667l0 170.666667q0 42.666667-42.666667 42.666666l0 0q-42.666667 0-42.666666-42.666666l0-170.666667q0-42.666667 42.666666-42.666667Z" p-id="2852"></path><path d="M597.333333 85.333333m42.666667 0l0 0q42.666667 0 42.666667 42.666667l0 170.666667q0 42.666667-42.666667 42.666666l0 0q-42.666667 0-42.666667-42.666666l0-170.666667q0-42.666667 42.666667-42.666667Z" p-id="2853"></path><path d="M768 85.333333m42.666667 0l0 0q42.666667 0 42.666666 42.666667l0 170.666667q0 42.666667-42.666666 42.666666l0 0q-42.666667 0-42.666667-42.666666l0-170.666667q0-42.666667 42.666667-42.666667Z" p-id="2854"></path><path d="M85.333333 426.666667m42.666667 0l170.666667 0q42.666667 0 42.666666 42.666666l0 0q0 42.666667-42.666666 42.666667l-170.666667 0q-42.666667 0-42.666667-42.666667l0 0q0-42.666667 42.666667-42.666666Z" p-id="2855"></path><path d="M85.333333 597.333333m42.666667 0l170.666667 0q42.666667 0 42.666666 42.666667l0 0q0 42.666667-42.666666 42.666667l-170.666667 0q-42.666667 0-42.666667-42.666667l0 0q0-42.666667 42.666667-42.666667Z" p-id="2856"></path><path d="M85.333333 768m42.666667 0l170.666667 0q42.666667 0 42.666666 42.666667l0 0q0 42.666667-42.666666 42.666666l-170.666667 0q-42.666667 0-42.666667-42.666666l0 0q0-42.666667 42.666667-42.666667Z" p-id="2857"></path><path d="M768 426.666667m42.666667 0l0 0q42.666667 0 42.666666 42.666666l0 426.666667q0 42.666667-42.666666 42.666667l0 0q-42.666667 0-42.666667-42.666667l0-426.666667q0-42.666667 42.666667-42.666666Z" p-id="2858"></path><path d="M426.666667 768m42.666666 0l426.666667 0q42.666667 0 42.666667 42.666667l0 0q0 42.666667-42.666667 42.666666l-426.666667 0q-42.666667 0-42.666666-42.666666l0 0q0-42.666667 42.666666-42.666667Z" p-id="2859"></path></svg>
