<?xml version="1.0" standalone="no"?><!DOCTYPE svg PUBLIC "-//W3C//DTD SVG 1.1//EN" "http://www.w3.org/Graphics/SVG/1.1/DTD/svg11.dtd"><svg t="1602551596226" class="icon" viewBox="0 0 1024 1024" version="1.1" xmlns="http://www.w3.org/2000/svg" p-id="1835" xmlns:xlink="http://www.w3.org/1999/xlink" width="200" height="200"><defs><style type="text/css"></style></defs><path d="M856 848H168a56 56 0 0 0-56 56 56 56 0 0 0 56 56h688a56 56 0 0 0 56-56 56 56 0 0 0-56-56zM128.28 435H318v268.57a72 72 0 0 0 72 72h244a72 72 0 0 0 72-72V435h189.72c14.69 0 21.84-17.74 11.17-27.72L561.2 83.73a72 72 0 0 0-98.4 0l-345.69 323.5c-10.67 9.98-3.52 27.77 11.17 27.77z" fill="" p-id="1836"></path></svg>