<?xml version="1.0" standalone="no"?><!DOCTYPE svg PUBLIC "-//W3C//DTD SVG 1.1//EN" "http://www.w3.org/Graphics/SVG/1.1/DTD/svg11.dtd"><svg t="1606902917936" class="icon" viewBox="0 0 1024 1024" version="1.1" xmlns="http://www.w3.org/2000/svg" p-id="2112" xmlns:xlink="http://www.w3.org/1999/xlink" width="200" height="200"><defs><style type="text/css"></style></defs><path d="M362.63 404.95h213.3v-63.99h-213.3v63.99z m0-127.98h127.98v-63.99H362.63v63.99zM243.786 447.709a32.003 32.003 0 0 0-19.801-6.864c-17.671 0-31.995 14.326-31.995 31.996v369.374c0 17.67 14.324 31.995 31.995 31.995h575.91c17.67 0 31.995-14.325 31.995-31.995V472.841a32.002 32.002 0 0 0-6.863-19.801c-10.936-13.88-31.053-16.266-44.933-5.331L571.342 612.181c-34.843 27.452-83.961 27.452-118.804 0L243.786 447.709zM810.56 377.45c24.627 2.755 48.183 14.986 64.731 35.989a95.99 95.99 0 0 1 20.589 59.402v369.374c0 53.011-42.974 95.985-95.985 95.985h-575.91c-53.011 0-95.985-42.974-95.985-95.985V472.841c0-49.406 37.328-90.097 85.32-95.403V180.985c0-53.011 42.974-95.985 95.985-95.985h405.27c53.011 0 95.985 42.974 95.985 95.985V377.45z m-63.99 15.576V180.985c0-17.67-14.324-31.995-31.995-31.995h-405.27c-17.67 0-31.995 14.325-31.995 31.995v212.047c2.077 1.387 214.829 168.885 214.829 168.885 11.615 9.151 27.987 9.151 39.602 0 0 0 212.764-167.508 214.829-168.891z" p-id="2113"></path></svg>